<svg width="7" height="7" viewBox="0 0 7 7" fill="none" xmlns="http://www.w3.org/2000/svg">
<path d="M5.15511 3.5C5.15511 4.41897 4.41142 5.16394 3.49402 5.16394V7C5.42371 7 6.98804 5.43299 6.98804 3.5H5.15511ZM3.49402 5.16394C2.57662 5.16394 1.83293 4.41897 1.83293 3.5H0C0 5.43299 1.56433 7 3.49402 7V5.16394ZM1.83293 3.5C1.83293 2.58104 2.57662 1.83607 3.49402 1.83607V0C1.56433 0 0 1.567 0 3.5H1.83293ZM3.49402 1.83607C4.41142 1.83607 5.15511 2.58104 5.15511 3.5H6.98804C6.98804 1.567 5.42371 0 3.49402 0V1.83607Z" fill="black"/>
</svg>
