<svg width="32" height="25" viewBox="0 0 32 25" fill="none" xmlns="http://www.w3.org/2000/svg">
<path d="M31 11.0769H30V6.15385C29.9994 5.50123 29.7885 4.87557 29.4135 4.4141C29.0386 3.95263 28.5302 3.69306 28 3.69231H26V2.46154C25.9994 1.80892 25.7885 1.18326 25.4135 0.721792C25.0386 0.260326 24.5302 0.000746367 24 0H21C20.4698 0.000746367 19.9614 0.260326 19.5865 0.721792C19.2115 1.18326 19.0006 1.80892 19 2.46154V11.0769H13V2.46154C12.9994 1.80892 12.7885 1.18326 12.4135 0.721792C12.0386 0.260326 11.5302 0.000746367 11 0H8C7.46975 0.000746367 6.9614 0.260326 6.58646 0.721792C6.21151 1.18326 6.00061 1.80892 6 2.46154V3.69231H4C3.46975 3.69306 2.9614 3.95263 2.58646 4.4141C2.21151 4.87557 2.00061 5.50123 2 6.15385V11.0769H1C0.734784 11.0769 0.48043 11.2066 0.292893 11.4374C0.105357 11.6682 0 11.9813 0 12.3077C0 12.6341 0.105357 12.9472 0.292893 13.178C0.48043 13.4087 0.734784 13.5385 1 13.5385H2V18.4615C2.00061 19.1141 2.21151 19.7398 2.58646 20.2012C2.9614 20.6628 3.46975 20.9223 4 20.9231H6V22.1538C6.00061 22.8064 6.21151 23.4321 6.58646 23.8935C6.9614 24.3551 7.46975 24.6146 8 24.6154H11C11.5302 24.6146 12.0386 24.3551 12.4135 23.8935C12.7885 23.4321 12.9994 22.8064 13 22.1538V13.5385H19V22.1538C19.0006 22.8064 19.2115 23.4321 19.5865 23.8935C19.9614 24.3551 20.4698 24.6146 21 24.6154H24C24.5302 24.6146 25.0386 24.3551 25.4135 23.8935C25.7885 23.4321 25.9994 22.8064 26 22.1538V20.9231H28C28.5302 20.9223 29.0386 20.6628 29.4135 20.2012C29.7885 19.7398 29.9994 19.1141 30 18.4615V13.5385H31C31.2652 13.5385 31.5196 13.4087 31.7071 13.178C31.8946 12.9472 32 12.6341 32 12.3077C32 11.9813 31.8946 11.6682 31.7071 11.4374C31.5196 11.2066 31.2652 11.0769 31 11.0769ZM4 18.4615V6.15385H6V18.4615H4ZM28 18.4615H26V6.15385H28V18.4615Z" fill="white"/>
</svg>
