<svg width="27" height="31" viewBox="0 0 27 31" fill="none" xmlns="http://www.w3.org/2000/svg">
<path d="M23.6438 7.75516C21.7252 4.8579 19.2548 2.37346 17.0913 0.325497C16.9584 0.199624 16.7956 0.105839 16.6166 0.0520204C16.4375 -0.00179852 16.2474 -0.0140791 16.0624 0.0162107C15.8773 0.0465004 15.7025 0.118476 15.5528 0.22609C15.4031 0.333702 15.2829 0.473811 15.2022 0.634641L10.6752 9.64958L5.93905 6.65543C5.8106 6.57421 5.66652 6.51781 5.51505 6.48948C5.36357 6.46115 5.20769 6.46144 5.05634 6.49032C4.90499 6.5192 4.76113 6.57611 4.63299 6.6578C4.50487 6.73947 4.395 6.84432 4.30966 6.96634C1.44998 11.0543 0 14.7558 0 17.968C0 21.3633 1.42231 24.6195 3.95405 27.0203C6.48579 29.421 9.91956 30.7698 13.5 30.7698C17.0804 30.7698 20.5142 29.421 23.0459 27.0203C25.5777 24.6195 27 21.3633 27 17.968C27 14.5064 25.9021 11.1657 23.6438 7.75516ZM22.2008 19.2511C21.9206 21.0041 21.0562 22.626 19.7342 23.8798C18.4121 25.1334 16.7017 25.9531 14.8531 26.2189C14.7934 26.2276 14.7331 26.2321 14.6725 26.2321C14.3769 26.2317 14.0922 26.1256 13.8755 25.9348C13.6588 25.7441 13.5259 25.4829 13.5035 25.2034C13.481 24.9238 13.5707 24.6465 13.7544 24.4269C13.9382 24.2073 14.2026 24.0614 14.4948 24.0186C15.8448 23.8123 17.0917 23.2078 18.0586 22.2909C19.0255 21.3741 19.6629 20.1915 19.8804 18.9114C19.904 18.767 19.9573 18.6283 20.0374 18.5034C20.1173 18.3784 20.2226 18.2696 20.3469 18.1832C20.4713 18.0968 20.6124 18.0345 20.7622 17.9999C20.9119 17.9652 21.0674 17.9588 21.2197 17.9812C21.3721 18.0034 21.5184 18.054 21.6501 18.1299C21.7818 18.2057 21.8965 18.3056 21.9876 18.4235C22.0787 18.5413 22.1444 18.6751 22.1811 18.8172C22.2176 18.9592 22.2243 19.1066 22.2008 19.2511Z" fill="white"/>
</svg>
