<svg width="30" height="28" viewBox="0 0 30 28" fill="none" xmlns="http://www.w3.org/2000/svg">
<path d="M21.5932 1.28778e-05C20.304 -0.00231993 19.0323 0.312317 17.8788 0.918894C16.7254 1.52547 15.7223 2.40725 14.9491 3.4941C13.9021 2.02635 12.4434 0.942669 10.7797 0.396392C9.11587 -0.149884 7.33115 -0.131089 5.67804 0.45012C4.02494 1.03133 2.58717 2.14551 1.56818 3.63503C0.549192 5.12453 0.000588959 6.91393 0 8.75001C0.00881753 10.1418 0.23948 11.5221 0.682358 12.8333H6.60513L8.49108 9.85287C8.59219 9.69306 8.72919 9.56202 8.88992 9.47139C9.05064 9.38077 9.23012 9.33334 9.41242 9.33334C9.59473 9.33334 9.7742 9.38077 9.93492 9.47139C10.0957 9.56202 10.2327 9.69306 10.3338 9.85287L13.8418 15.3967L15.1352 13.3528C15.2363 13.193 15.3733 13.062 15.5339 12.9713C15.6947 12.8808 15.8742 12.8333 16.0565 12.8333H19.3785C19.6722 12.8333 19.9539 12.9563 20.1615 13.175C20.3691 13.3938 20.4859 13.6906 20.4859 14C20.4859 14.3094 20.3691 14.6062 20.1615 14.8249C19.9539 15.0438 19.6722 15.1667 19.3785 15.1667H16.6491L14.7631 18.1471C14.662 18.307 14.525 18.438 14.3644 18.5286C14.2036 18.6193 14.0241 18.6667 13.8418 18.6667C13.6595 18.6667 13.48 18.6193 13.3192 18.5286C13.1586 18.438 13.0216 18.307 12.9205 18.1471L9.41242 12.6033L8.11908 14.6471C8.01797 14.807 7.88097 14.938 7.72024 15.0286C7.55952 15.1193 7.38004 15.1667 7.19774 15.1667H1.65879C5.34775 22.4307 13.9467 27.5791 14.4081 27.8512C14.5733 27.9488 14.7597 28 14.9491 28C15.1386 28 15.325 27.9488 15.4902 27.8512C18.032 26.2829 20.4174 24.449 22.6107 22.3776C27.4464 17.7924 29.8983 13.2074 29.8983 8.75001C29.8957 6.43017 29.0199 4.2061 27.463 2.56573C25.9061 0.925359 23.795 0.0026422 21.5932 1.28778e-05Z" fill="white"/>
</svg>
