<svg width="12" height="12" viewBox="0 0 12 12" fill="none" xmlns="http://www.w3.org/2000/svg">
<path d="M10.9356 3.36761L10.2522 3.36548V3.36761H10.9356ZM8.22353 0H3.40085V1.38323H8.22353V0ZM3.40085 0C2.44141 0 1.57467 0.271782 0.944023 0.87842C0.308089 1.49014 0 2.35785 0 3.36761H1.36695C1.36695 2.64424 1.58123 2.17395 1.88582 1.88096C2.1957 1.58288 2.68765 1.38323 3.40085 1.38323V0ZM0 3.36761V8.58334H1.36695V3.36761H0ZM0 8.58334C0 9.60345 0.305995 10.4816 0.939247 11.1027C1.5691 11.7204 2.43731 12 3.40085 12V10.6168C2.69175 10.6168 2.20128 10.4141 1.8906 10.1094C1.58333 9.80801 1.36695 9.32361 1.36695 8.58334H0ZM3.40085 12H8.21825V10.6168H3.40085V12ZM8.21825 12C9.18086 12 10.0481 11.7265 10.6781 11.1178C11.313 10.5044 11.6191 9.63563 11.6191 8.62694H10.2522C10.2522 9.35139 10.0386 9.82331 9.73416 10.1173C9.42499 10.4161 8.93354 10.6168 8.21825 10.6168V12ZM11.6191 8.62694V3.36761H10.2522V8.62694H11.6191ZM11.6191 3.36974C11.6221 2.36051 11.3176 1.49186 10.6824 0.879088C10.0525 0.271468 9.18498 0 8.22353 0V1.38323C8.93998 1.38323 9.43118 1.5832 9.73917 1.88029C10.0418 2.17224 10.2543 2.64158 10.2522 3.36548L11.6191 3.36974Z" fill="#555555"/>
</svg>
