<svg width="4" height="6" viewBox="0 0 4 6" fill="none" xmlns="http://www.w3.org/2000/svg">
<path d="M2.75177 5.89282C3.11139 6.10735 3.57682 5.98973 3.79135 5.63012C4.00588 5.2705 3.88826 4.80507 3.52865 4.59054L2.75177 5.89282ZM0.758199 3.82069H0C0 4.0877 0.140451 4.33504 0.369762 4.47183L0.758199 3.82069ZM1.5164 0.758199C1.5164 0.339457 1.17694 0 0.758199 0C0.339457 0 0 0.339457 0 0.758199H1.5164ZM3.52865 4.59054L1.14664 3.16955L0.369762 4.47183L2.75177 5.89282L3.52865 4.59054ZM1.5164 3.82069V0.758199H0V3.82069H1.5164Z" fill="#555555"/>
</svg>
