<svg width="17" height="17" viewBox="0 0 17 17" fill="none" xmlns="http://www.w3.org/2000/svg">
<path d="M16.3107 12.3238L16.9973 12.3854C16.9991 12.3649 16.9999 12.3443 16.9999 12.3238H16.3107ZM0.689186 12.3238H0C0 12.3444 0.000861023 12.3649 0.00258123 12.3855L0.689186 12.3238ZM8.49996 16.4827C11.0885 16.4827 13.103 16.3161 14.5131 15.7451C15.2348 15.4528 15.8333 15.0416 16.2666 14.4621C16.7018 13.88 16.9305 13.1815 16.9973 12.3854L15.6241 12.2622C15.5751 12.8456 15.4175 13.2676 15.1761 13.5903C14.9329 13.9157 14.5648 14.1936 14.0104 14.418C12.8686 14.8804 11.0934 15.0574 8.49996 15.0574V16.4827ZM16.9999 12.3238C16.9999 11.5539 16.8822 10.9612 16.6934 10.4503C16.5104 9.95543 16.2641 9.55341 16.0667 9.21172C15.8641 8.86117 15.6883 8.53632 15.5564 8.11353C15.4249 7.69207 15.3286 7.14401 15.3286 6.3613H13.9502C13.9502 7.26997 14.0628 7.96828 14.2446 8.55114C14.426 9.13267 14.6681 9.57007 14.8834 9.94268C15.1038 10.3241 15.2754 10.6061 15.4058 10.9591C15.5304 11.2961 15.6215 11.7151 15.6215 12.3238H16.9999ZM15.3286 6.3613C15.3286 3.31036 12.5831 0 8.49996 0V1.42521C11.8513 1.42521 13.9502 4.12761 13.9502 6.3613H15.3286ZM8.49996 0C4.41685 0 1.67137 3.31036 1.67137 6.3613H3.04974C3.04974 4.12761 5.14863 1.42521 8.49996 1.42521V0ZM1.67137 6.3613C1.67137 7.14401 1.57501 7.69207 1.44351 8.11353C1.31158 8.53632 1.13578 8.86117 0.933229 9.21172C0.735799 9.55341 0.489486 9.95543 0.306561 10.4503C0.117735 10.9612 0 11.5539 0 12.3238H1.37837C1.37837 11.7151 1.46956 11.2961 1.59411 10.9591C1.72456 10.6061 1.8961 10.3241 2.11651 9.94268C2.3318 9.57007 2.57384 9.13267 2.75529 8.55114C2.93716 7.96828 3.04974 7.26997 3.04974 6.3613H1.67137ZM0.00258123 12.3855C0.0695747 13.1836 0.29829 13.8835 0.733703 14.4663C1.16731 15.0466 1.76616 15.4576 2.48807 15.7492C3.89819 16.3188 5.91258 16.4827 8.49996 16.4827V15.0574C5.90628 15.0574 4.13151 14.8829 2.98961 14.4217C2.43552 14.1979 2.06766 13.9204 1.82449 13.595C1.58313 13.2719 1.42502 12.8487 1.37579 12.2622L0.00258123 12.3855Z" fill="white"/>
</svg>
