<svg width="22" height="23" viewBox="0 0 22 23" fill="none" xmlns="http://www.w3.org/2000/svg">
<path d="M17.5456 8.29859C17.8519 8.00793 17.8646 7.524 17.574 7.21769C17.2832 6.9114 16.7993 6.89871 16.4931 7.18937L17.5456 8.29859ZM12.4777 12.0537L12.9971 12.6148L13.0039 12.6084L12.4777 12.0537ZM9.55419 12.0537L9.03022 12.6106L9.03478 12.6148L9.55419 12.0537ZM5.49815 7.18717C5.19063 6.8978 4.70675 6.91251 4.41738 7.22003C4.12801 7.52755 4.14272 8.01142 4.45024 8.30079L5.49815 7.18717ZM16.0035 22.2354L16.006 21.4708H16.0035V22.2354ZM5.96844 22.2354V21.4708H5.96597L5.96844 22.2354ZM16.4931 7.18937L11.9513 11.4991L13.0039 12.6084L17.5456 8.29859L16.4931 7.18937ZM11.9583 11.4927C11.3933 12.0158 10.6386 12.0158 10.0736 11.4927L9.03478 12.6148C10.186 13.6806 11.8458 13.6806 12.9971 12.6148L11.9583 11.4927ZM10.0781 11.4969L5.49815 7.18717L4.45024 8.30079L9.03024 12.6105L10.0781 11.4969ZM16.0011 23C19.7176 23.012 21.972 19.4762 21.972 15.6014H20.4428C20.4428 19.0534 18.5069 21.479 16.006 21.4708L16.0011 23ZM21.972 15.6014V7.40864H20.4428V15.6014H21.972ZM21.972 7.40864C21.972 3.53267 19.7174 0 16.0035 0V1.52914C18.5072 1.52914 20.4428 3.95781 20.4428 7.40864H21.972ZM16.0035 0H5.96844V1.52914H16.0035V0ZM5.96844 0C2.25463 0 0 3.53267 0 7.40864H1.52914C1.52914 3.95781 3.46485 1.52914 5.96844 1.52914V0ZM0 7.40864V15.6014H1.52914V7.40864H0ZM0 15.6014C0 19.4762 2.25443 23.012 5.97092 23L5.96597 21.4708C3.46506 21.479 1.52914 19.0534 1.52914 15.6014H0ZM5.96844 23H16.0035V21.4708H5.96844V23Z" fill="white"/>
</svg>
