<svg width="20" height="23" viewBox="0 0 20 23" fill="none" xmlns="http://www.w3.org/2000/svg">
<path d="M6.80256 21.5995V18.0725C6.80255 17.1788 7.4496 16.4528 8.25108 16.4471H11.194C11.9991 16.4471 12.6516 17.1748 12.6516 18.0725V21.5892C12.6516 22.3644 13.2125 22.9944 13.9077 23H15.9154C16.8532 23.0027 17.7533 22.5892 18.4172 21.8509C19.0811 21.1125 19.4542 20.1098 19.4542 19.0642V9.04574C19.4542 8.20111 19.1185 7.39993 18.5374 6.85804L11.7166 0.77541C10.5242 -0.28851 8.82134 -0.254141 7.66434 0.857193L0.990131 6.85804C0.381652 7.38396 0.0179719 8.18751 0 9.04574V19.054C0 21.2333 1.58437 23 3.5388 23H5.50073C5.83542 23.0027 6.15725 22.8563 6.39478 22.5935C6.63232 22.3305 6.7659 21.9727 6.76589 21.5995H6.80256Z" fill="#A3F45C"/>
</svg>
