<svg width="22" height="23" viewBox="0 0 22 23" fill="none" xmlns="http://www.w3.org/2000/svg">
<path d="M4.40425 6.1006L5.12013 6.10357V6.1006H4.40425ZM10.9431 11.4865L10.9411 12.2024H10.9431V11.4865ZM10.9896 14.6847C8.20729 14.6847 5.55847 14.8548 3.58537 15.3958C2.59994 15.666 1.72192 16.0446 1.07857 16.5908C0.411989 17.1566 0 17.9044 0 18.8301H1.43177C1.43177 18.3836 1.61131 18.0167 2.0052 17.6822C2.42231 17.3281 3.0737 17.0207 3.964 16.7766C5.74236 16.289 8.23035 16.1165 10.9896 16.1165V14.6847ZM0 18.8301C0 19.7537 0.408319 20.5024 1.07178 21.0711C1.7124 21.6201 2.58754 22.0023 3.57166 22.2759C5.54184 22.8237 8.19136 23 10.9896 23V21.5682C8.21627 21.5682 5.72896 21.3896 3.95519 20.8965C3.06732 20.6496 2.41869 20.3398 2.00354 19.984C1.61123 19.6477 1.43177 19.2785 1.43177 18.8301H0ZM10.9896 23C13.7719 23 16.4203 22.8296 18.3931 22.2884C19.3784 22.0181 20.2562 21.6396 20.8994 21.0934C21.5658 20.5276 21.9777 19.78 21.9777 18.8546H20.5459C20.5459 19.3008 20.3665 19.6677 19.9726 20.002C19.5557 20.3561 18.9044 20.6635 18.0144 20.9076C16.2363 21.3954 13.7486 21.5682 10.9896 21.5682V23ZM21.9777 18.8546C21.9777 17.9312 21.5695 17.1827 20.9061 16.6141C20.2657 16.0651 19.3907 15.6829 18.4068 15.4092C16.4369 14.8613 13.7878 14.6847 10.9896 14.6847V16.1165C13.7628 16.1165 16.2497 16.2953 18.0231 16.7886C18.9108 17.0356 19.5593 17.3454 19.9743 17.7012C20.3666 18.0374 20.5459 18.4064 20.5459 18.8546H21.9777ZM10.9896 12.2024C14.8803 12.2024 18.2894 9.59781 18.2894 6.1006H16.8576C16.8576 8.55169 14.3718 10.7706 10.9896 10.7706V12.2024ZM18.2894 6.1006C18.2894 2.60323 14.8801 0 10.9896 0V1.43177C14.372 1.43177 16.8576 3.64968 16.8576 6.1006H18.2894ZM10.9896 0C7.09917 0 3.68836 2.60306 3.68836 6.1006H5.12013C5.12013 3.64984 7.60689 1.43177 10.9896 1.43177V0ZM3.68837 6.09764C3.67392 9.58545 7.06394 12.1915 10.9411 12.2024L10.9452 10.7706C7.57661 10.7612 5.11002 8.54397 5.12013 6.10357L3.68837 6.09764ZM10.9431 12.2024H10.9896V10.7706H10.9431V12.2024Z" fill="white"/>
</svg>
