<svg width="6" height="3" viewBox="0 0 6 3" fill="none" xmlns="http://www.w3.org/2000/svg">
<path d="M5.84459 1.17158C6.08868 0.861048 6.03978 0.407458 5.73536 0.15846C5.43095 -0.0905373 4.98631 -0.0406541 4.74222 0.269879L5.84459 1.17158ZM1.25819 0.270502C1.01444 -0.0403072 0.569849 -0.0906921 0.265169 0.157962C-0.0395125 0.406617 -0.0889041 0.860151 0.154848 1.17096L1.25819 0.270502ZM4.74222 0.269879C4.21332 0.942749 3.58274 1.23169 3.00254 1.2334C2.42361 1.2351 1.79203 0.95119 1.25819 0.270502L0.154848 1.17096C0.918315 2.14446 1.93766 2.67794 3.00661 2.6748C4.07426 2.67166 5.08848 2.13351 5.84459 1.17158L4.74222 0.269879Z" fill="white"/>
</svg>
