<svg width="17" height="19" viewBox="0 0 17 19" fill="none" xmlns="http://www.w3.org/2000/svg">
<path d="M16.3108 13.5693L16.998 13.6235C16.9994 13.6054 17 13.5874 17 13.5693H16.3108ZM0.689189 13.5693H0C0 13.5874 0.000683676 13.6055 0.00204827 13.6235L0.689189 13.5693ZM8.5 18.0912C11.0897 18.0912 13.1173 17.9068 14.5393 17.2687C15.2697 16.941 15.8643 16.4839 16.2891 15.8543C16.7124 15.2271 16.9332 14.4788 16.998 13.6235L15.6236 13.5151C15.5726 14.1884 15.4071 14.6817 15.1537 15.0571C14.902 15.4302 14.53 15.7368 13.9844 15.9816C12.8544 16.4887 11.0923 16.6851 8.5 16.6851V18.0912ZM17 13.5693C17 11.8596 16.5111 11.0156 16.0836 10.1956C15.7019 9.46377 15.3287 8.68971 15.3287 6.96232H13.9503C13.9503 8.98335 14.4126 9.98527 14.8666 10.856C15.2748 11.6388 15.6216 12.2241 15.6216 13.5693H17ZM15.3287 6.96232C15.3287 3.70948 12.6572 0 8.5 0V1.4061C11.7773 1.4061 13.9503 4.35931 13.9503 6.96232H15.3287ZM8.5 0C4.34286 0 1.67138 3.70948 1.67138 6.96232H3.04975C3.04975 4.35931 5.22267 1.4061 8.5 1.4061V0ZM1.67138 6.96232C1.67138 8.68971 1.29806 9.46377 0.916414 10.1956C0.488895 11.0156 0 11.8596 0 13.5693H1.37838C1.37838 12.2241 1.72517 11.6388 2.13333 10.856C2.58738 9.98527 3.04975 8.98335 3.04975 6.96232H1.67138ZM0.00204827 13.6235C0.0670259 14.4813 0.287851 15.2311 0.711269 15.859C1.13634 16.4895 1.73134 16.9463 2.46196 17.2733C3.88404 17.9098 5.91155 18.0912 8.5 18.0912V16.6851C5.90738 16.6851 4.1457 16.4914 3.01576 15.9857C2.47037 15.7416 2.09864 15.4355 1.84694 15.0622C1.59358 14.6864 1.42757 14.1917 1.37633 13.5151L0.00204827 13.6235Z" fill="white"/>
</svg>
