<svg width="21" height="20" viewBox="0 0 21 20" fill="none" xmlns="http://www.w3.org/2000/svg">
<path d="M10.5 0C8.42332 0 6.39325 0.582073 4.66653 1.67261C2.93981 2.76315 1.59399 4.31317 0.799271 6.12667C0.00454953 7.94017 -0.203386 9.9357 0.20176 11.8609C0.606905 13.7861 1.60694 15.5545 3.07539 16.9425C4.54384 18.3305 6.41477 19.2757 8.45157 19.6587C10.4884 20.0416 12.5996 19.8451 14.5182 19.0939C16.4368 18.3427 18.0767 17.0707 19.2305 15.4385C20.3842 13.8064 21 11.8876 21 9.92469C20.9969 7.29341 19.8896 4.77076 17.9212 2.91017C15.9527 1.04958 13.2838 0.002985 10.5 0ZM10.5 16.2404C9.17848 16.2404 7.88662 15.87 6.7878 15.176C5.68898 14.482 4.83255 13.4957 4.32682 12.3416C3.82109 11.1876 3.68876 9.91768 3.94658 8.69255C4.2044 7.46743 4.84079 6.34208 5.77526 5.45881C6.70973 4.57554 7.90032 3.97402 9.19646 3.73033C10.4926 3.48664 11.8361 3.61171 13.0571 4.08973C14.278 4.56775 15.3216 5.37725 16.0558 6.41587C16.79 7.45448 17.1819 8.67556 17.1819 9.92469C17.1799 11.5991 16.4753 13.2045 15.2226 14.3885C13.9699 15.5725 12.2715 16.2385 10.5 16.2404Z" fill="black"/>
</svg>
