<svg width="52" height="50" viewBox="0 0 52 50" fill="none" xmlns="http://www.w3.org/2000/svg">
<path d="M26 0C19.1722 0.00350094 12.6193 2.58665 7.7539 7.19259V0H4.28363V13.3472H18.1647V10.0104H9.73706C11.8406 7.90217 14.3655 6.2243 17.1601 5.07751C19.9547 3.93072 22.9615 3.33864 26 3.33681C38.4225 3.33681 48.5297 13.0553 48.5297 25C48.5297 36.9447 38.4225 46.6632 26 46.6632C13.5775 46.6632 3.47028 36.9447 3.47028 25H0C-6.40072e-06 29.9445 1.52486 34.778 4.38178 38.8892C7.23869 43.0005 11.2993 46.2048 16.0502 48.097C20.8011 49.9892 26.0288 50.4843 31.0723 49.5196C36.1158 48.555 40.7486 46.174 44.3848 42.6776C48.0209 39.1813 50.4972 34.7268 51.5004 29.8772C52.5036 25.0277 51.9887 20.001 50.0209 15.4329C48.053 10.8647 44.7205 6.96028 40.4448 4.21325C36.1691 1.46621 31.1423 -6.15453e-06 26 0Z" fill="black"/>
</svg>
