<svg width="54" height="54" viewBox="0 0 54 54" fill="none" xmlns="http://www.w3.org/2000/svg">
<path d="M53.1308 34.4609L49.3495 31.5187C50.0198 28.5395 50.0198 25.4605 49.3495 22.4813L53.1308 19.5391C53.5669 19.2014 53.8616 18.7279 53.962 18.2035C54.0625 17.6791 53.9621 17.1381 53.679 16.6772L49.7975 10.3229C49.5169 9.86055 49.0712 9.50778 48.5404 9.32781C48.0096 9.14783 47.4284 9.15243 46.9008 9.34077L42.3112 10.9661C39.9204 8.92427 37.0998 7.38337 34.0345 6.44446L33.2292 1.88022C33.138 1.35421 32.8516 0.87608 32.4214 0.531536C31.9911 0.186992 31.4451 -0.00144189 30.8811 8.30851e-06H23.1183C22.5544 -0.00142343 22.0084 0.187003 21.5781 0.53152C21.1479 0.876037 20.8615 1.35413 20.7703 1.88011L19.9654 6.44446C16.9002 7.38334 14.0795 8.92424 11.6887 10.9661L7.09861 9.34054C6.5711 9.15233 5.98992 9.14781 5.45921 9.3278C4.92849 9.50778 4.48292 9.86051 4.20234 10.3228L0.320924 16.6776C0.0378449 17.1384 -0.062403 17.6795 0.0381351 18.2039C0.138673 18.7283 0.43343 19.2017 0.869614 19.5393L4.65057 22.4813C3.98024 25.4605 3.98024 28.5395 4.65057 31.5187L0.869256 34.4609C0.433142 34.7986 0.138466 35.2721 0.0379955 35.7965C-0.0624753 36.3208 0.0378208 36.8619 0.320924 37.3228L4.20246 43.6771C4.48307 44.1394 4.92871 44.4922 5.4595 44.6722C5.99029 44.8521 6.57154 44.8475 7.09908 44.6592L11.6888 43.0339C14.0797 45.0758 16.9003 46.6167 19.9655 47.5555L20.7704 52.1198C20.8616 52.6458 21.1479 53.1239 21.5782 53.4684C22.0084 53.8129 22.5544 54.0014 23.1183 54H30.8811C31.445 54.0014 31.9911 53.813 32.4213 53.4685C32.8516 53.124 33.138 52.6459 33.2292 52.1199L34.0341 47.5555C37.0994 46.6166 39.92 45.0757 42.3109 43.0339L46.9008 44.6595C47.4284 44.8476 48.0095 44.8522 48.5402 44.6722C49.0709 44.4922 49.5165 44.1395 49.7971 43.6772L53.6783 37.3224C53.9615 36.8617 54.0619 36.3208 53.9616 35.7964C53.8612 35.2721 53.5667 34.7987 53.1308 34.4609ZM47.104 40.8869L41.378 38.8592L40.5109 39.6843C38.1253 41.957 35.1414 43.5871 31.867 44.4062L30.6768 44.7028L29.6716 50.4H24.3288L23.324 44.7028L22.1338 44.4062C18.8594 43.5871 15.8754 41.957 13.4898 39.6843L12.6228 38.8592L6.89579 40.8869L4.22483 36.5132L8.94154 32.843L8.62018 31.7211C7.73642 28.6291 7.73642 25.3709 8.62018 22.2789L8.94154 21.1571L4.22483 17.4869L6.89639 13.1131L12.6224 15.1408L13.4895 14.3157C15.8751 12.043 18.859 10.4129 22.1334 9.59378L23.3236 9.29723L24.3283 3.60001H29.6716L30.6764 9.29723L31.8666 9.59378C35.141 10.4129 38.125 12.043 40.5106 14.3157L41.3776 15.1408L47.1037 13.1131L49.7753 17.4868L45.0586 21.1571L45.38 22.2789C46.2637 25.3709 46.2637 28.6291 45.38 31.7211L45.0586 32.843L49.7753 36.5131L47.104 40.8869Z" fill="black"/>
</svg>
