<svg width="22" height="21" viewBox="0 0 22 21" fill="none" xmlns="http://www.w3.org/2000/svg">
<path fill-rule="evenodd" clip-rule="evenodd" d="M16.3911 0.805534L16.3923 1.59116C19.7591 1.81742 21.9831 3.78464 21.9867 6.80146L22 15.632C22.0048 18.9211 19.595 20.9449 15.7322 20.9501L6.29675 20.9606C2.45813 20.9648 0.0181092 18.8928 0.0132822 15.5942L8.12745e-06 6.86745C-0.00481881 3.83073 2.14076 1.86876 5.50755 1.60373L5.50634 0.818104C5.50513 0.357202 5.90336 0.0104775 6.43432 0.0104775C6.96528 0.0094299 7.3635 0.355107 7.36471 0.816009L7.36592 1.54926L14.5339 1.54089L14.5327 0.807629C14.5315 0.346726 14.9297 0.00104988 15.4607 2.3743e-06C15.9796 -0.00104513 16.3899 0.344631 16.3911 0.805534ZM1.85959 7.19112L20.1296 7.17018V6.80355C20.0777 4.55141 18.7599 3.36983 16.3947 3.19385L16.3959 4.00043C16.3959 4.45085 15.9868 4.80805 15.4679 4.80805C14.937 4.8091 14.5375 4.45295 14.5375 4.00253L14.5363 3.15404L7.36833 3.16242L7.36954 4.00985C7.36954 4.46133 6.97252 4.81748 6.44156 4.81748C5.9106 4.81853 5.51117 4.46342 5.51117 4.01195L5.50996 3.20537C3.15683 3.40754 1.85476 4.59331 1.85838 6.86535L1.85959 7.19112ZM14.9599 11.952V11.9636C14.972 12.4454 15.4305 12.811 15.9868 12.8005C16.5299 12.789 16.9631 12.3899 16.951 11.9081C16.9257 11.4471 16.49 11.0711 15.9482 11.0721C15.3931 11.0826 14.9587 11.4702 14.9599 11.952ZM15.9567 16.6554C15.4016 16.6449 14.9539 16.2478 14.9527 15.766C14.9406 15.2842 15.3859 14.885 15.941 14.8735H15.953C16.5202 14.8735 16.98 15.2705 16.98 15.7628C16.9812 16.2552 16.5226 16.6543 15.9567 16.6554ZM9.98815 11.9688C10.0123 12.4507 10.4721 12.8267 11.0272 12.8057C11.5702 12.7838 12.0034 12.3857 11.9793 11.9039C11.966 11.4325 11.5195 11.0658 10.9765 11.0669C10.4214 11.0879 9.98695 11.487 9.98815 11.9688ZM11.032 16.6082C10.4769 16.6291 10.0183 16.2531 9.99298 15.7712C9.99298 15.2894 10.4262 14.8913 10.9813 14.8694C11.5243 14.8683 11.972 15.2349 11.9841 15.7052C12.0094 16.1881 11.575 16.5862 11.032 16.6082ZM5.01641 12.0055C5.04054 12.4873 5.50031 12.8644 6.0554 12.8425C6.59844 12.8215 7.03165 12.4223 7.00631 11.9405C6.99424 11.4692 6.54775 11.1026 6.00351 11.1036C5.44842 11.1245 5.0152 11.5236 5.01641 12.0055ZM6.06023 16.6135C5.50513 16.6354 5.04657 16.2583 5.02123 15.7765C5.02003 15.2947 5.45445 14.8955 6.00955 14.8745C6.55258 14.8735 7.00028 15.2402 7.01235 15.7115C7.03769 16.1934 6.60447 16.5925 6.06023 16.6135Z" fill="#A3F45C"/>
</svg>
