<svg width="21" height="23" viewBox="0 0 21 23" fill="none" xmlns="http://www.w3.org/2000/svg">
<path d="M7.57232 20.4V21.095H8.33491V20.4H7.57232ZM7.57232 17.1824H8.33491H7.57232ZM9.02237 15.6995V15.0045L9.01702 15.0046L9.02237 15.6995ZM13.4276 20.3906H14.1902H13.4276ZM14.6849 21.6776L14.6787 22.3726H14.6849V21.6776ZM16.6948 21.6776L16.697 20.9827H16.6948V21.6776ZM20.2373 18.087H19.4747H20.2373ZM20.2373 8.94732H20.9999V8.9473L20.2373 8.94732ZM19.3195 6.9515L19.8397 6.44327L19.8334 6.43797L19.8271 6.43281L19.3195 6.9515ZM12.4915 1.40238L11.9837 1.92092L11.9839 1.92107L12.4915 1.40238ZM8.43501 1.47699L8.94488 1.99379L8.95421 1.98613L8.96328 1.9782L8.43501 1.47699ZM1.75376 6.9515L2.25243 7.47729L2.25808 7.47284L2.26363 7.4683L1.75376 6.9515ZM0.762589 8.94732L0.000166753 8.93277L0 8.94004V8.94732H0.762589ZM6.26911 21.6776L6.27532 20.9827H6.26911V21.6776ZM7.53561 20.4V19.705H6.773L6.77302 20.4H7.53561ZM8.33491 20.4V17.1824H6.80973V20.4H8.33491ZM8.33491 17.1824C8.3349 16.6766 8.71967 16.3965 9.02771 16.3945L9.01702 15.0046C7.72042 15.0129 6.80971 16.0575 6.80973 17.1825L8.33491 17.1824ZM9.02237 16.3945H11.9684V15.0045H9.02237V16.3945ZM11.9684 16.3945C12.2771 16.3945 12.665 16.6741 12.665 17.1824H14.1902C14.1902 16.0527 13.2714 15.0045 11.9684 15.0045V16.3945ZM12.665 17.1824V20.3906H14.1902V17.1824H12.665ZM12.665 20.3906C12.665 21.4071 13.489 22.3639 14.6787 22.3726L14.691 20.9827C14.489 20.9813 14.1902 20.7884 14.1902 20.3906H12.665ZM14.6849 22.3726H16.6948V20.9827H14.6849V22.3726ZM16.6926 22.3726C17.8624 22.3757 18.9662 21.9049 19.7662 21.0939L18.6321 20.1646C18.103 20.701 17.4045 20.9846 16.697 20.9827L16.6926 22.3726ZM19.7662 21.0939C20.5639 20.2855 20.9999 19.2026 20.9999 18.087H19.4747C19.4747 18.8793 19.1638 19.6258 18.6321 20.1646L19.7662 21.0939ZM20.9999 18.087V8.94732H19.4747V18.087H20.9999ZM20.9999 8.9473C20.9999 7.99767 20.5866 7.0781 19.8397 6.44327L18.7995 7.45973C19.2158 7.81364 19.4747 8.35587 19.4747 8.94734L20.9999 8.9473ZM19.8271 6.43281L12.999 0.883692L11.9839 1.92107L18.8121 7.47019L19.8271 6.43281ZM12.9992 0.883836C11.5065 -0.330046 9.35047 -0.288015 7.90674 0.975779L8.96328 1.9782C9.83598 1.21427 11.0894 1.1936 11.9837 1.92092L12.9992 0.883836ZM7.92514 0.960192L1.2439 6.4347L2.26363 7.4683L8.94488 1.99379L7.92514 0.960192ZM1.25509 6.42571C0.470593 7.04365 0.0223357 7.96799 0.000166753 8.93277L1.52501 8.96187C1.53882 8.36075 1.81869 7.81894 2.25243 7.47729L1.25509 6.42571ZM0 8.94732V18.0778H1.52518V8.94732H0ZM0 18.0778C0 20.3766 1.85146 22.3726 4.30512 22.3726V20.9827C2.8458 20.9827 1.52518 19.7552 1.52518 18.0778H0ZM4.30512 22.3726H6.26911V20.9827H4.30512V22.3726ZM6.2629 22.3726C6.82987 22.3769 7.35587 22.15 7.72999 21.7726L6.59823 20.8409C6.49677 20.9433 6.37845 20.9835 6.27532 20.9827L6.2629 22.3726ZM7.72999 21.7726C8.10159 21.3977 8.29821 20.9025 8.2982 20.4H6.77302C6.77302 20.5784 6.70219 20.736 6.59823 20.8409L7.72999 21.7726ZM7.53561 21.095H7.57232V19.705H7.53561V21.095Z" fill="white"/>
</svg>
