<svg width="17" height="15" viewBox="0 0 17 15" fill="none" xmlns="http://www.w3.org/2000/svg">
<path d="M16.2878 11.2153L16.9734 11.2713C16.9752 11.2527 16.976 11.2339 16.976 11.2153H16.2878ZM0.688216 11.2153H0C0 11.234 0.000859811 11.2527 0.0025776 11.2714L0.688216 11.2153ZM8.488 15C11.0729 15 13.0846 14.8484 14.4926 14.3288C15.2133 14.0628 15.811 13.6886 16.2437 13.1612C16.6783 12.6315 16.9067 11.9958 16.9734 11.2713L15.6021 11.1592C15.5532 11.6901 15.3958 12.0741 15.1547 12.3679C14.9119 12.6639 14.5443 12.9168 13.9907 13.1211C12.8505 13.5419 11.0778 13.703 8.488 13.703V15ZM16.976 11.2153C16.976 10.5146 16.8585 9.97522 16.6699 9.51029C16.4872 9.05992 16.2413 8.69406 16.0441 8.38311C15.8418 8.06409 15.6663 7.76846 15.5345 7.3837C15.4032 7.00016 15.307 6.5014 15.307 5.78909H13.9306C13.9306 6.61603 14.043 7.25152 14.2246 7.78195C14.4057 8.31117 14.6474 8.70923 14.8624 9.04832C15.0826 9.39546 15.2539 9.65209 15.3841 9.97332C15.5085 10.28 15.5996 10.6613 15.5996 11.2153H16.976ZM15.307 5.78909C15.307 3.01258 12.5654 0 8.488 0V1.29701C11.8347 1.29701 13.9306 3.75632 13.9306 5.78909H15.307ZM8.488 0C4.41064 0 1.66902 3.01258 1.66902 5.78909H3.04545C3.04545 3.75632 5.14139 1.29701 8.488 1.29701V0ZM1.66902 5.78909C1.66902 6.5014 1.5728 7.00016 1.44148 7.3837C1.30974 7.76846 1.13418 8.06409 0.931916 8.38311C0.734764 8.69406 0.488798 9.05992 0.30613 9.51029C0.117569 9.97522 0 10.5146 0 11.2153H1.37643C1.37643 10.6613 1.46749 10.28 1.59187 9.97332C1.72214 9.65209 1.89343 9.39546 2.11353 9.04832C2.32852 8.70923 2.57022 8.31117 2.75142 7.78195C2.93303 7.25152 3.04545 6.61603 3.04545 5.78909H1.66902ZM0.0025776 11.2714C0.0694768 11.9977 0.29787 12.6346 0.732671 13.165C1.16566 13.6931 1.76368 14.0672 2.48457 14.3326C3.89271 14.8509 5.90426 15 8.488 15V13.703C5.89798 13.703 4.1257 13.5442 2.98541 13.1245C2.43209 12.9207 2.06475 12.6682 1.82192 12.3721C1.5809 12.0781 1.42301 11.6929 1.37385 11.1592L0.0025776 11.2714Z" fill="white"/>
</svg>
