<svg width="22" height="21" viewBox="0 0 22 21" fill="none" xmlns="http://www.w3.org/2000/svg">
<path d="M17.5681 7.57243C17.8747 7.3072 17.8875 6.86562 17.5964 6.58611C17.3053 6.30662 16.8208 6.29505 16.5142 6.56027L17.5681 7.57243ZM12.4936 10.9989L13.0137 11.5109L13.0205 11.5051L12.4936 10.9989ZM9.56642 10.9989L9.04177 11.5071L9.04633 11.5109L9.56642 10.9989ZM5.50518 6.55826C5.19727 6.29421 4.71277 6.30763 4.42303 6.58824C4.13329 6.86885 4.14802 7.31038 4.45593 7.57444L5.50518 6.55826ZM16.024 20.2897L16.0265 19.592H16.024V20.2897ZM5.97607 20.2897V19.592H5.9736L5.97607 20.2897ZM16.5142 6.56027L11.9666 10.4929L13.0205 11.5051L17.5681 7.57243L16.5142 6.56027ZM11.9736 10.487C11.4079 10.9643 10.6522 10.9643 10.0865 10.487L9.04633 11.5109C10.199 12.4835 11.861 12.4835 13.0137 11.5109L11.9736 10.487ZM10.091 10.4908L5.50518 6.55826L4.45593 7.57444L9.04179 11.507L10.091 10.4908ZM16.0216 20.9874C19.7428 20.9983 22.0001 17.772 22.0001 14.2362H20.469C20.469 17.3861 18.5306 19.5995 16.0265 19.592L16.0216 20.9874ZM22.0001 14.2362V6.76035H20.469V14.2362H22.0001ZM22.0001 6.76035C22.0001 3.22355 19.7426 0 16.024 0V1.39533C18.5308 1.39533 20.469 3.61148 20.469 6.76035H22.0001ZM16.024 0H5.97607V1.39533H16.024V0ZM5.97607 0C2.25752 0 0 3.22355 0 6.76035H1.53109C1.53109 3.61148 3.46928 1.39533 5.97607 1.39533V0ZM0 6.76035V14.2362H1.53109V6.76035H0ZM0 14.2362C0 17.772 2.25731 20.9983 5.97855 20.9874L5.9736 19.592C3.46949 19.5995 1.53109 17.3861 1.53109 14.2362H0ZM5.97607 20.9874H16.024V19.592H5.97607V20.9874Z" fill="white"/>
</svg>
