<svg width="22" height="21" viewBox="0 0 22 21" fill="none" xmlns="http://www.w3.org/2000/svg">
<path d="M4.40874 5.56533L5.12535 5.56804V5.56533H4.40874ZM10.9543 10.4786L10.9523 11.1317H10.9543V10.4786ZM11.0008 13.3963C8.21566 13.3963 5.56414 13.5514 3.58903 14.045C2.60259 14.2915 1.72367 14.6368 1.07967 15.1351C0.412409 15.6513 0 16.3335 0 17.1779H1.43323C1.43323 16.7706 1.61296 16.4359 2.00724 16.1308C2.42478 15.8077 3.07683 15.5273 3.96804 15.3046C5.74822 14.8598 8.23874 14.7024 11.0008 14.7024V13.3963ZM0 17.1779C0 18.0205 0.408735 18.7035 1.07287 19.2223C1.71414 19.7231 2.59018 20.0718 3.5753 20.3214C5.54749 20.8211 8.19971 20.982 11.0008 20.982V19.6758C8.22465 19.6758 5.7348 19.5129 3.95922 19.063C3.07045 18.8378 2.42116 18.5551 2.00559 18.2305C1.61287 17.9238 1.43323 17.587 1.43323 17.1779H0ZM11.0008 20.982C13.7859 20.982 16.437 20.8265 18.4119 20.3328C19.3982 20.0862 20.2768 19.7409 20.9207 19.2427C21.5878 18.7265 22.0001 18.0445 22.0001 17.2003H20.5669C20.5669 17.6074 20.3873 17.942 19.993 18.247C19.5756 18.57 18.9237 18.8504 18.0327 19.0732C16.2528 19.5182 13.7626 19.6758 11.0008 19.6758V20.982ZM22.0001 17.2003C22.0001 16.3579 21.5915 15.6751 20.9274 15.1564C20.2863 14.6555 19.4105 14.3069 18.4256 14.0572C16.4537 13.5574 13.8019 13.3963 11.0008 13.3963V14.7024C13.7768 14.7024 16.2663 14.8655 18.0414 15.3156C18.93 15.5409 19.5792 15.8235 19.9947 16.148C20.3874 16.4548 20.5669 16.7914 20.5669 17.2003H22.0001ZM11.0008 11.1317C14.8955 11.1317 18.308 8.75569 18.308 5.56533H16.8748C16.8748 7.80136 14.3865 9.82554 11.0008 9.82554V11.1317ZM18.308 5.56533C18.308 2.37482 14.8953 0 11.0008 0V1.30615C14.3867 1.30615 16.8748 3.32946 16.8748 5.56533H18.308ZM11.0008 0C7.1064 0 3.69212 2.37466 3.69212 5.56533H5.12535C5.12535 3.3296 7.61464 1.30615 11.0008 1.30615V0ZM3.69213 5.56262C3.67766 8.74442 7.07114 11.1218 10.9523 11.1317L10.9563 9.82554C7.58434 9.81704 5.11523 7.79431 5.12535 5.56804L3.69213 5.56262ZM10.9543 11.1317H11.0008V9.82554H10.9543V11.1317Z" fill="white"/>
</svg>
