<svg width="22" height="24" viewBox="0 0 22 24" fill="none" xmlns="http://www.w3.org/2000/svg">
<path d="M0.861084 8.02684C0.443758 8.02684 0.105449 8.36514 0.105449 8.78247C0.105449 9.1998 0.443758 9.53811 0.861084 9.53811V8.02684ZM21.1495 9.53811C21.5668 9.53811 21.9052 9.1998 21.9052 8.78247C21.9052 8.36514 21.5668 8.02684 21.1495 8.02684V9.53811ZM16.0563 12.2606C15.6389 12.2606 15.3007 12.599 15.3007 13.0163C15.3007 13.4336 15.6389 13.7719 16.0563 13.7719V12.2606ZM16.0668 13.7719C16.4841 13.7719 16.8225 13.4336 16.8225 13.0163C16.8225 12.599 16.4841 12.2606 16.0668 12.2606V13.7719ZM11.0053 12.2606C10.588 12.2606 10.2496 12.599 10.2496 13.0163C10.2496 13.4336 10.588 13.7719 11.0053 13.7719V12.2606ZM11.0158 13.7719C11.4332 13.7719 11.7715 13.4336 11.7715 13.0163C11.7715 12.599 11.4332 12.2606 11.0158 12.2606V13.7719ZM5.94372 12.2606C5.5264 12.2606 5.18809 12.599 5.18809 13.0163C5.18809 13.4336 5.5264 13.7719 5.94372 13.7719V12.2606ZM5.95427 13.7719C6.3716 13.7719 6.70991 13.4336 6.70991 13.0163C6.70991 12.599 6.3716 12.2606 5.95427 12.2606V13.7719ZM16.0563 16.474C15.6389 16.474 15.3007 16.8123 15.3007 17.2296C15.3007 17.6469 15.6389 17.9852 16.0563 17.9852V16.474ZM16.0668 17.9852C16.4841 17.9852 16.8225 17.6469 16.8225 17.2296C16.8225 16.8123 16.4841 16.474 16.0668 16.474V17.9852ZM11.0053 16.474C10.588 16.474 10.2496 16.8123 10.2496 17.2296C10.2496 17.6469 10.588 17.9852 11.0053 17.9852V16.474ZM11.0158 17.9852C11.4332 17.9852 11.7715 17.6469 11.7715 17.2296C11.7715 16.8123 11.4332 16.474 11.0158 16.474V17.9852ZM5.94372 16.474C5.5264 16.474 5.18809 16.8123 5.18809 17.2296C5.18809 17.6469 5.5264 17.9852 5.94372 17.9852V16.474ZM5.95427 17.9852C6.3716 17.9852 6.70991 17.6469 6.70991 17.2296C6.70991 16.8123 6.3716 16.474 5.95427 16.474V17.9852ZM16.3585 0.755635C16.3585 0.338309 16.0202 0 15.6029 0C15.1855 0 14.8472 0.338309 14.8472 0.755635H16.3585ZM14.8472 4.32312C14.8472 4.74044 15.1855 5.07875 15.6029 5.07875C16.0202 5.07875 16.3585 4.74044 16.3585 4.32312H14.8472ZM7.16334 0.755635C7.16334 0.338309 6.82503 0 6.4077 0C5.99038 0 5.65207 0.338309 5.65207 0.755635H7.16334ZM5.65207 4.32312C5.65207 4.74044 5.99038 5.07875 6.4077 5.07875C6.82503 5.07875 7.16334 4.74044 7.16334 4.32312H5.65207ZM21.2444 7.50105L20.4888 7.49861V7.50105H21.2444ZM0.861084 9.53811H21.1495V8.02684H0.861084V9.53811ZM16.0563 13.7719H16.0668V12.2606H16.0563V13.7719ZM11.0053 13.7719H11.0158V12.2606H11.0053V13.7719ZM5.94372 13.7719H5.95427V12.2606H5.94372V13.7719ZM16.0563 17.9852H16.0668V16.474H16.0563V17.9852ZM11.0053 17.9852H11.0158V16.474H11.0053V17.9852ZM5.94372 17.9852H5.95427V16.474H5.94372V17.9852ZM14.8472 0.755635V4.32312H16.3585V0.755635H14.8472ZM5.65207 0.755635V4.32312H7.16334V0.755635H5.65207ZM15.8243 1.71198H6.18626V3.22326H15.8243V1.71198ZM6.18626 1.71198C4.38803 1.71198 2.82822 2.18956 1.71027 3.20169C0.5813 4.22381 0 5.70328 0 7.50105H1.51127C1.51127 6.03887 1.97392 5.00163 2.72457 4.32202C3.48626 3.63243 4.64176 3.22326 6.18626 3.22326V1.71198ZM0 7.50105V17.3116H1.51127V7.50105H0ZM0 17.3116C0 19.1312 0.578686 20.6319 1.70489 21.6714C2.82223 22.7028 4.38378 23.193 6.18626 23.193V21.6817C4.64601 21.6817 3.49225 21.2646 2.72996 20.5609C1.97653 19.8654 1.51127 18.8033 1.51127 17.3116H0ZM6.18626 23.193H15.8137V21.6817H6.18626V23.193ZM15.8137 23.193C17.6178 23.193 19.1782 22.7125 20.2949 21.697C21.4222 20.672 22.0001 19.1902 22.0001 17.3936H20.4888C20.4888 18.857 20.028 19.8971 19.2782 20.5789C18.5179 21.2702 17.363 21.6817 15.8137 21.6817V23.193ZM22.0001 17.3936V7.50105H20.4888V17.3936H22.0001ZM22.0001 7.5035C22.0058 5.7063 21.4308 4.22571 20.3037 3.2024C19.1878 2.18923 17.6272 1.71198 15.8243 1.71198V3.22326C17.3748 3.22326 18.5295 3.63275 19.2878 4.32132C20.0351 4.99972 20.4935 6.03585 20.4888 7.49861L22.0001 7.5035Z" fill="#ADADAD"/>
</svg>
