<svg width="21" height="25" viewBox="0 0 21 25" fill="none" xmlns="http://www.w3.org/2000/svg">
<path d="M7.57232 22.3849V23.1474H8.33491V22.3849H7.57232ZM7.57232 18.8542H8.33491H7.57232ZM9.02237 17.227V16.4644L9.01702 16.4645L9.02237 17.227ZM13.4276 22.3746H14.1902H13.4276ZM14.6849 23.7868L14.6787 24.5494H14.6849V23.7868ZM16.6948 23.7868L16.697 23.0242H16.6948V23.7868ZM20.2373 19.8469H19.4747H20.2373ZM20.2373 9.81787H20.9999V9.81785L20.2373 9.81787ZM19.3195 7.62786L19.8397 7.07018L19.8334 7.06437L19.8271 7.05871L19.3195 7.62786ZM12.4915 1.53883L11.9837 2.10782L11.9839 2.10798L12.4915 1.53883ZM8.43501 1.62069L8.94488 2.18778L8.95421 2.17938L8.96328 2.17067L8.43501 1.62069ZM1.75376 7.62786L2.25243 8.20481L2.25808 8.19993L2.26363 8.19495L1.75376 7.62786ZM0.762589 9.81787L0.000166753 9.80191L0 9.80989V9.81787H0.762589ZM6.26911 23.7868L6.27532 23.0242H6.26911V23.7868ZM7.53561 22.3849V21.6223H6.773L6.77302 22.3849H7.53561ZM8.33491 22.3849V18.8542H6.80973V22.3849H8.33491ZM8.33491 18.8542C8.3349 18.2992 8.71967 17.9918 9.02771 17.9896L9.01702 16.4645C7.72042 16.4736 6.80971 17.6199 6.80973 18.8543L8.33491 18.8542ZM9.02237 17.9896H11.9684V16.4644H9.02237V17.9896ZM11.9684 17.9896C12.2771 17.9896 12.665 18.2965 12.665 18.8542H14.1902C14.1902 17.6146 13.2714 16.4644 11.9684 16.4644V17.9896ZM12.665 18.8542V22.3746H14.1902V18.8542H12.665ZM12.665 22.3746C12.665 23.49 13.489 24.5398 14.6787 24.5494L14.691 23.0243C14.489 23.0227 14.1902 22.8111 14.1902 22.3746H12.665ZM14.6849 24.5494H16.6948V23.0242H14.6849V24.5494ZM16.6926 24.5494C17.8624 24.5528 18.9662 24.0362 19.7662 23.1463L18.6321 22.1266C18.103 22.7151 17.4045 23.0263 16.697 23.0242L16.6926 24.5494ZM19.7662 23.1463C20.5639 22.2593 20.9999 21.071 20.9999 19.8469H19.4747C19.4747 20.7162 19.1638 21.5353 18.6321 22.1266L19.7662 23.1463ZM20.9999 19.8469V9.81787H19.4747V19.8469H20.9999ZM20.9999 9.81785C20.9999 8.77583 20.5866 7.76678 19.8397 7.07018L18.7995 8.18554C19.2158 8.57388 19.4747 9.16887 19.4747 9.81789L20.9999 9.81785ZM19.8271 7.05871L12.999 0.969673L11.9839 2.10798L18.8121 8.19702L19.8271 7.05871ZM12.9992 0.969831C11.5065 -0.362159 9.35047 -0.316038 7.90674 1.07072L8.96328 2.17067C9.83598 1.33242 11.0894 1.30973 11.9837 2.10782L12.9992 0.969831ZM7.92514 1.05362L1.2439 7.06078L2.26363 8.19495L8.94488 2.18778L7.92514 1.05362ZM1.25509 7.05091C0.470593 7.72897 0.0223357 8.74325 0.000166753 9.80191L1.52501 9.83383C1.53882 9.17422 1.81869 8.5797 2.25243 8.20481L1.25509 7.05091ZM0 9.81787V19.8367H1.52518V9.81787H0ZM0 19.8367C0 22.3592 1.85146 24.5494 4.30512 24.5494V23.0242C2.8458 23.0242 1.52518 21.6774 1.52518 19.8367H0ZM4.30512 24.5494H6.26911V23.0242H4.30512V24.5494ZM6.2629 24.5494C6.82987 24.5541 7.35587 24.3052 7.72999 23.891L6.59823 22.8686C6.49677 22.981 6.37845 23.0251 6.27532 23.0243L6.2629 24.5494ZM7.72999 23.891C8.10159 23.4796 8.29821 22.9363 8.2982 22.3849H6.77302C6.77302 22.5806 6.70219 22.7535 6.59823 22.8686L7.72999 23.891ZM7.53561 23.1474H7.57232V21.6223H7.53561V23.1474Z" fill="#ADADAD"/>
</svg>
