<svg width="22" height="23" viewBox="0 0 22 23" fill="none" xmlns="http://www.w3.org/2000/svg">
<path d="M17.5457 8.2986C17.8519 8.00794 17.8646 7.52401 17.574 7.2177C17.2833 6.91141 16.7993 6.89872 16.4931 7.18938L17.5457 8.2986ZM12.4777 12.0537L12.9971 12.6148L13.0039 12.6084L12.4777 12.0537ZM9.55421 12.0537L9.03023 12.6106L9.03479 12.6148L9.55421 12.0537ZM5.49815 7.18718C5.19063 6.89781 4.70675 6.91252 4.41739 7.22004C4.12801 7.52756 4.14272 8.01143 4.45024 8.3008L5.49815 7.18718ZM16.0036 22.2354L16.006 21.4709H16.0036V22.2354ZM5.96845 22.2354V21.4709H5.96598L5.96845 22.2354ZM16.4931 7.18938L11.9513 11.4991L13.0039 12.6084L17.5457 8.2986L16.4931 7.18938ZM11.9583 11.4927C11.3933 12.0158 10.6386 12.0158 10.0736 11.4927L9.03479 12.6148C10.186 13.6806 11.8458 13.6806 12.9971 12.6148L11.9583 11.4927ZM10.0782 11.4969L5.49815 7.18718L4.45024 8.3008L9.03025 12.6105L10.0782 11.4969ZM16.0011 23C19.7176 23.012 21.972 19.4762 21.972 15.6014H20.4429C20.4429 19.0534 18.507 21.479 16.006 21.4709L16.0011 23ZM21.972 15.6014V7.40865H20.4429V15.6014H21.972ZM21.972 7.40865C21.972 3.53268 19.7174 0 16.0036 0V1.52914C18.5072 1.52914 20.4429 3.95781 20.4429 7.40865H21.972ZM16.0036 0H5.96845V1.52914H16.0036V0ZM5.96845 0C2.25464 0 0 3.53268 0 7.40865H1.52914C1.52914 3.95781 3.46486 1.52914 5.96845 1.52914V0ZM0 7.40865V15.6014H1.52914V7.40865H0ZM0 15.6014C0 19.4762 2.25443 23.012 5.97092 23L5.96598 21.4709C3.46506 21.479 1.52914 19.0534 1.52914 15.6014H0ZM5.96845 23H16.0036V21.4709H5.96845V23Z" fill="#ADADAD"/>
</svg>
