<svg width="21" height="22" viewBox="0 0 21 22" fill="none" xmlns="http://www.w3.org/2000/svg">
<path fill-rule="evenodd" clip-rule="evenodd" d="M10.4793 14.9787C4.82697 14.9787 0 15.6776 0 18.4768C0 21.276 4.79634 22 10.4793 22C16.1316 22 20.9572 21.2999 20.9572 18.5019C20.9572 15.7038 16.1623 14.9787 10.4793 14.9787ZM10.4793 10.9862C14.1887 10.9862 17.195 8.5262 17.195 5.49251C17.195 2.45883 14.1887 0 10.4793 0C6.77 0 3.7622 2.45883 3.7622 5.49251C3.74967 8.51596 6.7366 10.9759 10.432 10.9862H10.4793Z" fill="black"/>
<path fill-rule="evenodd" clip-rule="evenodd" d="M10.4793 14.9787C4.82697 14.9787 0 15.6776 0 18.4768C0 21.276 4.79634 22 10.4793 22C16.1316 22 20.9572 21.2999 20.9572 18.5019C20.9572 15.7038 16.1623 14.9787 10.4793 14.9787ZM10.4793 10.9862C14.1887 10.9862 17.195 8.5262 17.195 5.49251C17.195 2.45883 14.1887 0 10.4793 0C6.77 0 3.7622 2.45883 3.7622 5.49251C3.74967 8.51596 6.7366 10.9759 10.432 10.9862H10.4793Z" fill="black"/>
</svg>
