<svg width="23" height="22" viewBox="0 0 23 22" fill="none" xmlns="http://www.w3.org/2000/svg">
<path d="M10.2808 5.5H12.5654V7.7H10.2808V5.5ZM10.2808 9.9H12.5654V16.5H10.2808V9.9ZM11.4231 0C5.11754 0 0 4.928 0 11C0 17.072 5.11754 22 11.4231 22C17.7286 22 22.8462 17.072 22.8462 11C22.8462 4.928 17.7286 0 11.4231 0ZM11.4231 19.8C6.3855 19.8 2.28462 15.851 2.28462 11C2.28462 6.149 6.3855 2.2 11.4231 2.2C16.4607 2.2 20.5615 6.149 20.5615 11C20.5615 15.851 16.4607 19.8 11.4231 19.8Z" fill="black"/>
</svg>
