<svg width="14" height="13" viewBox="0 0 14 13" fill="none" xmlns="http://www.w3.org/2000/svg">
<path d="M0.823529 10.6211H0H0.823529ZM1.85294 2.3717V3.19664V2.3717ZM3.91138 2.3717V3.19664C4.18674 3.19664 4.44386 3.05879 4.59661 2.82929L3.91138 2.3717ZM4.94079 0.824939V0C4.66544 0 4.40832 0.137849 4.25558 0.367345L4.94079 0.824939ZM9.05844 0.824939L9.74366 0.367345C9.59091 0.137849 9.33379 0 9.05844 0V0.824939ZM10.0878 2.3717L9.40264 2.82929C9.55537 3.05879 9.81249 3.19664 10.0878 3.19664V2.3717ZM12.147 10.8273H1.85294V12.4772H12.147V10.8273ZM1.85294 10.8273C1.79834 10.8273 1.74597 10.8056 1.70736 10.7669L0.542714 11.9336C0.890207 12.2816 1.36151 12.4772 1.85294 12.4772V10.8273ZM1.70736 10.7669C1.66875 10.7282 1.64706 10.6758 1.64706 10.6211H0C0 11.1134 0.195219 11.5855 0.542714 11.9336L1.70736 10.7669ZM1.64706 10.6211V3.40287H0V10.6211H1.64706ZM1.64706 3.40287C1.64706 3.34818 1.66875 3.29571 1.70736 3.25704L0.542714 2.0904C0.195219 2.43849 0 2.9106 0 3.40287H1.64706ZM1.70736 3.25704C1.74597 3.21837 1.79834 3.19664 1.85294 3.19664V1.54676C1.36151 1.54676 0.890207 1.74232 0.542714 2.0904L1.70736 3.25704ZM1.85294 3.19664H3.91138V1.54676H1.85294V3.19664ZM4.59661 2.82929L5.62602 1.28253L4.25558 0.367345L3.22617 1.91411L4.59661 2.82929ZM4.94079 1.64988H9.05844V0H4.94079V1.64988ZM8.37323 1.28253L9.40264 2.82929L10.7731 1.91411L9.74366 0.367345L8.37323 1.28253ZM10.0878 3.19664H12.147V1.54676H10.0878V3.19664ZM12.147 3.19664C12.2016 3.19664 12.254 3.21837 12.2926 3.25704L13.4573 2.0904C13.1098 1.74232 12.6385 1.54676 12.147 1.54676V3.19664ZM12.2926 3.25704C12.3312 3.29571 12.3529 3.34818 12.3529 3.40287H14C14 2.9106 13.8048 2.43849 13.4573 2.0904L12.2926 3.25704ZM12.3529 3.40287V10.6211H14V3.40287H12.3529ZM12.3529 10.6211C12.3529 10.6758 12.3312 10.7282 12.2926 10.7669L13.4573 11.9336C13.8048 11.5855 14 11.1134 14 10.6211H12.3529ZM12.2926 10.7669C12.254 10.8056 12.2016 10.8273 12.147 10.8273V12.4772C12.6385 12.4772 13.1098 12.2816 13.4573 11.9336L12.2926 10.7669Z" fill="black"/>
</svg>
